<svg width="19" height="24" viewBox="0 0 19 24" fill="none" xmlns="http://www.w3.org/2000/svg">
<path d="M5.54167 11.375C5.28889 11.375 5.07986 11.2924 4.91458 11.1271C4.7493 10.9618 4.66667 10.7528 4.66667 10.5C4.66667 10.2472 4.7493 10.0382 4.91458 9.87292C5.07986 9.70764 5.28889 9.625 5.54167 9.625H13.125C13.3778 9.625 13.5868 9.70764 13.7521 9.87292C13.9174 10.0382 14 10.2472 14 10.5C14 10.7528 13.9174 10.9618 13.7521 11.1271C13.5868 11.2924 13.3778 11.375 13.125 11.375H5.54167ZM5.54167 6.70833C5.28889 6.70833 5.07986 6.62569 4.91458 6.46042C4.7493 6.29514 4.66667 6.08611 4.66667 5.83333C4.66667 5.58056 4.7493 5.37153 4.91458 5.20625C5.07986 5.04097 5.28889 4.95833 5.54167 4.95833H13.125C13.3778 4.95833 13.5868 5.04097 13.7521 5.20625C13.9174 5.37153 14 5.58056 14 5.83333C14 6.08611 13.9174 6.29514 13.7521 6.46042C13.5868 6.62569 13.3778 6.70833 13.125 6.70833H5.54167ZM1.75 14.2917H11.0833C11.5889 14.2917 12.0653 14.4083 12.5125 14.6417C12.9597 14.875 13.3389 15.1861 13.65 15.575L16.9167 19.8333V1.75H1.75V14.2917ZM1.75 21.5833H16.0417L12.2792 16.6542C12.1236 16.4597 11.9437 16.309 11.7396 16.2021C11.5354 16.0951 11.3167 16.0417 11.0833 16.0417H1.75V21.5833ZM16.9167 23.3333H1.75C1.28333 23.3333 0.875 23.1583 0.525 22.8083C0.175 22.4583 0 22.05 0 21.5833V1.75C0 1.28333 0.175 0.875 0.525 0.525C0.875 0.175 1.28333 0 1.75 0H16.9167C17.3833 0 17.7917 0.175 18.1417 0.525C18.4917 0.875 18.6667 1.28333 18.6667 1.75V21.5833C18.6667 22.05 18.4917 22.4583 18.1417 22.8083C17.7917 23.1583 17.3833 23.3333 16.9167 23.3333ZM1.75 21.5833V1.75V21.5833ZM1.75 16.0417V14.2917V16.0417Z" fill="#5256B8"/>
</svg>
