<svg width="410" height="393" viewBox="0 0 410 393" fill="none" xmlns="http://www.w3.org/2000/svg">
<path d="M205.537 153.949C205.646 150.042 205.212 146.243 203.583 142.769C199.35 133.977 192.295 129.202 182.417 128.767C179.704 128.659 176.99 128.55 174.494 127.79C165.593 125.185 160.275 116.828 161.034 107.059C161.686 98.5923 168.524 91.3199 177.099 90.0174C178.618 89.8003 180.247 89.5832 181.766 89.6918C193.38 90.1259 204.777 80.7912 205.429 67.766C205.646 64.2926 205.537 60.7107 204.777 57.4544C202.281 46.6001 192.729 39.2191 181.658 39.4362C175.471 39.5448 170.152 37.8081 166.027 33.2493C160.492 27.0623 159.298 19.7899 162.554 12.1919C165.702 4.70236 171.672 0.903363 179.812 0.469189C191.535 -0.0735266 200.327 10.021 199.893 20.1155C199.676 24.6743 200.544 29.1246 202.932 33.1407C207.817 41.1729 214.872 45.189 224.315 45.0805C230.176 44.9719 235.278 46.8172 239.294 51.1589C245.047 57.4544 246.349 64.7268 242.985 72.4334C239.728 80.0314 233.65 83.939 225.401 84.1561C221.602 84.2646 217.911 84.3731 214.438 86.0013C204.994 90.2345 200.327 97.724 199.893 107.927C199.784 110.749 200.327 113.68 200.761 116.502C202.389 126.814 212.81 134.629 222.904 134.629C225.183 134.629 227.463 134.737 229.634 135.171C238.86 137.125 245.155 145.809 244.613 155.578C244.07 164.695 236.689 172.51 227.571 173.487C225.726 173.704 223.772 173.596 221.819 173.813C209.445 174.681 199.893 184.776 199.784 197.258C199.784 199.538 199.676 201.817 199.133 203.988C197.396 211.586 189.798 219.184 178.618 218.424C169.935 217.773 162.228 210.826 161.034 201.926C159.189 187.815 170.369 179.023 181.006 179.349C190.667 179.674 198.048 175.224 202.824 166.866C204.994 162.524 205.646 158.291 205.537 153.949Z" fill="#ED6623"/>
<path d="M114.902 109.506C115.01 80.4162 136.502 55.4512 165.266 51.218C168.197 50.7839 171.127 50.5668 174.058 50.5668C180.788 50.5668 186.106 55.9939 186.215 62.6151C186.215 69.3448 181.005 74.6634 174.166 74.7719C168.414 74.8805 162.987 76.0744 157.885 78.788C144.534 85.7348 137.37 100.388 139.867 115.476C142.255 129.586 154.086 141.309 168.414 143.588C170.476 143.914 172.538 144.023 174.601 144.131C180.896 144.565 185.889 149.558 186.106 155.745C186.323 161.932 181.873 167.359 175.795 168.119C170.693 168.77 165.592 168.011 160.599 166.817C136.936 161.281 119.135 141.96 115.662 117.972C115.227 115.259 115.119 112.436 114.902 109.506Z" fill="#0D1272"/>
<path d="M254.6 109.408C254.6 98.4454 263.392 89.762 274.355 89.762C285.209 89.762 294.11 98.554 294.11 109.408C294.11 120.371 285.209 129.163 274.246 129.163C263.283 129.163 254.6 120.371 254.6 109.408Z" fill="#0D1272"/>
<path d="M238.426 109.3C238.426 116.898 232.456 123.085 224.75 123.193C217.26 123.193 210.965 117.006 210.965 109.408C210.965 101.919 217.043 95.8404 224.533 95.7318C232.239 95.7318 238.318 101.702 238.426 109.3Z" fill="#0D1272"/>
<path d="M155.281 287.549C157.669 287.549 159.84 287.549 162.119 287.549C162.336 288.092 162.445 288.634 162.662 289.069C163.53 291.674 165.484 292.976 168.198 293.085C172.322 293.193 176.556 293.193 180.68 293.193C183.937 293.193 186.433 290.697 186.433 287.658C186.433 284.618 183.937 282.23 180.68 282.122C175.904 282.013 171.129 282.013 166.353 281.796C161.251 281.688 157.452 278.757 156.041 274.09C153.979 267.143 158.863 260.088 166.027 259.87C171.888 259.762 177.858 259.87 183.72 260.196C189.472 260.522 193.706 265.189 193.488 271.05C191.318 271.05 189.255 271.05 186.867 271.05C186.759 270.725 186.542 270.291 186.325 269.748C185.673 268.12 184.479 267.251 182.743 267.143C177.315 267.034 171.78 266.926 166.353 266.926C164.182 266.926 162.771 268.445 162.662 270.508C162.554 272.679 163.856 274.307 166.244 274.524C169.175 274.741 172.105 274.741 175.145 274.741C177.098 274.741 178.944 274.741 180.897 274.849C188.061 275.066 193.597 280.819 193.488 287.766C193.38 294.713 187.844 300.14 180.789 300.249C176.556 300.249 172.323 300.249 167.981 300.14C161.251 299.923 156.258 295.364 155.39 288.851C155.281 288.526 155.281 288.2 155.281 287.549Z" fill="#0D1272"/>
<path d="M267.948 300.425C265.777 300.425 263.715 300.425 261.435 300.425C261.435 291.959 261.435 283.818 261.435 275.46C259.59 275.786 258.505 277.197 257.094 278.174C255.574 279.15 254.163 280.344 252.752 281.43C251.341 282.407 249.93 283.492 248.41 284.578C244.285 281.321 240.269 278.065 235.711 274.483C235.168 277.631 235.385 280.344 235.385 283.058C235.276 285.88 235.276 288.594 235.276 291.416C235.276 294.238 235.276 296.952 235.276 299.774C232.888 300.425 230.609 299.991 228.112 299.991C227.895 286.64 228.547 273.506 228.655 259.83C230.609 261.349 232.237 262.543 233.757 263.737C235.385 265.04 237.013 266.342 238.641 267.645C240.269 268.947 241.897 270.25 243.526 271.552C245.154 272.855 246.782 274.157 248.627 275.568C255.248 270.575 261.869 265.691 268.491 260.807C269.033 262.543 268.599 297.928 267.948 300.425Z" fill="#0D1272"/>
<path d="M45.0007 293.261C45.0007 295.758 45.0007 297.82 45.0007 300.208C44.4579 300.316 43.9152 300.425 43.264 300.425C36.9685 300.316 30.7815 300.316 24.486 300.099C14.0658 299.665 5.81654 291.741 5.05674 281.538C4.29694 271.335 11.2437 262.218 21.3382 260.155C22.3151 259.938 23.4006 259.83 24.486 259.83C30.89 259.83 37.2941 259.938 43.8067 260.047C44.3494 260.047 44.7836 260.155 45.4348 260.264C45.4348 262.435 45.4348 264.606 45.4348 267.102C44.4579 267.102 43.3725 267.211 42.3956 267.211C36.5343 267.211 30.7815 266.994 24.9202 266.994C18.4076 266.994 13.0889 271.878 12.2206 278.174C11.3522 284.469 15.2598 290.656 21.4468 292.393C23.292 292.935 25.3543 293.044 27.4167 293.044C32.084 293.153 36.7514 293.152 41.5273 293.261C42.7213 293.37 43.8067 293.261 45.0007 293.261Z" fill="#0D1272"/>
<path d="M80.9277 259.83C83.0985 259.83 85.2694 259.83 87.6574 259.83C87.6574 262.218 87.6574 264.389 87.6574 266.559C87.5488 271.118 87.4403 275.568 87.4403 280.127C87.4403 287.4 93.4102 293.261 100.574 293.152C107.629 293.152 113.382 287.508 113.599 280.236C113.707 274.809 113.816 269.49 113.924 264.063C113.924 262.869 113.924 261.675 113.924 260.264C116.421 260.264 118.592 260.264 120.871 260.264C120.871 263.086 120.871 265.582 120.871 268.188C120.871 272.095 120.763 276.003 120.763 279.91C120.654 290.982 112.405 299.665 101.442 300.208C90.4795 300.642 80.9277 292.501 80.4935 280.887C80.2764 274.049 80.7106 267.211 80.8191 260.372C80.602 260.155 80.8191 260.047 80.9277 259.83Z" fill="#0D1272"/>
<path d="M387.24 267.159C387.023 278.23 386.915 289.085 386.697 300.048C384.31 300.048 382.139 300.048 379.642 300.048C379.859 289.085 379.968 278.23 380.185 267.05C374.649 266.616 369.222 266.942 363.686 266.616C363.686 264.337 363.686 262.166 363.686 260.104C365.64 259.561 400.483 259.887 403.739 260.538C403.739 262.709 403.739 264.88 403.739 267.268C398.312 267.159 392.993 267.159 387.24 267.159Z" fill="#0D1272"/>
<path d="M322.003 259.83C328.733 273.615 335.246 286.748 341.758 300.099C341.216 300.316 340.999 300.425 340.781 300.425C338.611 300.425 336.44 300.425 334.052 300.425C330.036 292.393 326.128 284.252 321.895 275.786C321.244 276.762 320.809 277.414 320.375 278.174C317.01 284.578 313.537 290.873 310.281 297.277C309.195 299.448 307.893 300.208 305.613 299.882C304.202 299.665 302.683 299.882 300.729 299.882C307.893 286.423 314.84 273.398 322.003 259.83Z" fill="#0D1272"/>
<path d="M9.2959 377V353.231H1.55859V350.17H20.7812V353.231H13.0254V377H9.2959ZM24.8633 349.075H28.3516V359.188C28.9329 358.52 29.6999 357.981 30.6523 357.573C31.6048 357.165 32.7923 356.961 34.2148 356.961C35.8353 356.961 37.1341 357.221 38.1113 357.74C39.0885 358.247 39.7936 358.934 40.2266 359.8C40.6719 360.666 40.8945 361.618 40.8945 362.657V377H37.4062V362.472C37.4062 361.494 37.029 360.777 36.2744 360.319C35.5199 359.862 34.5365 359.633 33.3242 359.633C31.6172 359.633 30.3617 359.948 29.5576 360.579C28.7536 361.198 28.3516 361.983 28.3516 362.936V377H24.8633V349.075ZM46.8691 370.061V363.214C46.8691 361.358 47.5062 359.855 48.7803 358.705C50.0544 357.542 52.1016 356.961 54.9219 356.961C57.6185 356.961 59.6038 357.493 60.8779 358.557C62.152 359.608 62.7891 361.068 62.7891 362.936V367.611H50.3574V370.376C50.3574 371.972 50.6729 373.097 51.3037 373.753C51.9469 374.409 53.1963 374.736 55.0518 374.736C56.1527 374.736 57.0186 374.699 57.6494 374.625C58.2926 374.538 58.7627 374.291 59.0596 373.883C59.3688 373.462 59.5729 372.757 59.6719 371.768H62.752C62.5911 373.314 62.251 374.495 61.7314 375.312C61.2243 376.116 60.4388 376.666 59.375 376.963C58.3112 377.26 56.8701 377.408 55.0518 377.408C52.1201 377.408 50.0234 376.796 48.7617 375.571C47.5 374.347 46.8691 372.51 46.8691 370.061ZM59.4121 365.255V362.564C59.4121 361.377 58.9977 360.591 58.1689 360.208C57.3525 359.825 56.2702 359.633 54.9219 359.633C53.5365 359.633 52.4294 359.874 51.6006 360.356C50.7718 360.839 50.3574 361.686 50.3574 362.898V365.255H59.4121ZM87.5596 377.408C85.568 377.408 83.7311 377.198 82.0488 376.777C80.3665 376.344 78.8203 375.72 77.4102 374.903L78.7275 372.046C79.7542 372.652 81.0592 373.196 82.6426 373.679C84.2259 374.161 85.8402 374.402 87.4854 374.402C88.945 374.402 90.0583 374.211 90.8252 373.827C91.6045 373.444 92.1426 372.85 92.4395 372.046C92.7363 371.229 92.8848 370.178 92.8848 368.892C92.8848 368.137 92.6807 367.5 92.2725 366.98C91.8643 366.449 90.9798 365.954 89.6191 365.496L83.1436 363.344C81.2881 362.725 79.9521 361.94 79.1357 360.987C78.3193 360.022 77.9111 358.625 77.9111 356.794C77.9111 355.075 78.3008 353.701 79.0801 352.675C79.8717 351.648 80.9479 350.906 82.3086 350.448C83.6693 349.991 85.2031 349.762 86.9102 349.762C89.1986 349.762 91.054 349.941 92.4766 350.3C93.8991 350.646 95.0433 351.091 95.9092 351.636L95 354.549C94.196 354.116 93.1878 353.714 91.9756 353.343C90.7757 352.959 89.3037 352.768 87.5596 352.768C85.6175 352.768 84.127 353.021 83.0879 353.528C82.0488 354.035 81.5293 355.13 81.5293 356.812C81.5293 357.629 81.7025 358.297 82.0488 358.816C82.4076 359.324 83.1559 359.775 84.2939 360.171L91.0479 362.453C92.8786 363.072 94.2145 363.888 95.0557 364.902C95.9092 365.917 96.3359 367.438 96.3359 369.467C96.3359 371.941 95.6494 373.883 94.2764 375.293C92.9157 376.703 90.6768 377.408 87.5596 377.408ZM102.385 349.075H105.873V367.277L115.28 357.332H119.103L111.105 365.979L119.9 377H115.874L108.823 367.871L105.873 370.803V377H102.385V349.075ZM124.02 357.332H127.508V377H124.02V357.332ZM123.964 349.075H127.563V352.935H123.964V349.075ZM134.781 370.357V349.075H138.27V370.395C138.27 371.458 138.368 372.269 138.566 372.825C138.764 373.369 139.123 373.741 139.643 373.938C140.162 374.124 140.91 374.217 141.888 374.217H142.5L142.092 377.148H141.09C139.655 377.148 138.467 376.981 137.527 376.647C136.6 376.313 135.907 375.658 135.449 374.681C135.004 373.703 134.781 372.262 134.781 370.357ZM147.695 370.357V349.075H151.184V370.395C151.184 371.458 151.283 372.269 151.48 372.825C151.678 373.369 152.037 373.741 152.557 373.938C153.076 374.124 153.825 374.217 154.802 374.217H155.414L155.006 377.148H154.004C152.569 377.148 151.382 376.981 150.441 376.647C149.514 376.313 148.821 375.658 148.363 374.681C147.918 373.703 147.695 372.262 147.695 370.357ZM160.906 357.332H164.395V377H160.906V357.332ZM160.851 349.075H164.45V352.935H160.851V349.075ZM171.594 357.332H175.082V359.243C175.663 358.575 176.424 358.031 177.364 357.61C178.304 357.177 179.486 356.961 180.908 356.961C182.529 356.961 183.827 357.227 184.805 357.759C185.794 358.278 186.512 358.977 186.957 359.855C187.402 360.721 187.625 361.674 187.625 362.713V377H184.137V362.509C184.137 361.532 183.753 360.808 182.986 360.338C182.219 359.868 181.23 359.633 180.018 359.633C178.311 359.633 177.061 359.954 176.27 360.598C175.478 361.241 175.082 362.039 175.082 362.991V377H171.594V357.332ZM201.522 384.57C200.199 384.57 199.061 384.515 198.108 384.403C197.156 384.292 196.315 384.1 195.585 383.828L196.364 381.212C196.896 381.41 197.632 381.577 198.572 381.713C199.512 381.849 200.44 381.917 201.355 381.917C203.05 381.917 204.269 381.558 205.011 380.841C205.765 380.123 206.143 379.035 206.143 377.575V374.848C205.771 375.194 205.271 375.472 204.64 375.683C204.021 375.881 203.39 376.029 202.747 376.128C202.104 376.215 201.553 376.258 201.096 376.258C198.585 376.258 196.711 375.72 195.474 374.644C194.249 373.567 193.637 372.009 193.637 369.968V363.492C193.637 361.513 194.237 359.93 195.437 358.742C196.649 357.555 198.535 356.961 201.096 356.961C201.764 356.961 202.45 357.06 203.155 357.258C203.873 357.456 204.504 357.703 205.048 358C205.592 358.297 205.957 358.6 206.143 358.909V357.332H209.631V376.536C209.631 378.07 209.377 379.443 208.87 380.655C208.375 381.868 207.534 382.82 206.347 383.513C205.172 384.218 203.563 384.57 201.522 384.57ZM201.634 373.586C202.933 373.586 203.941 373.394 204.658 373.011C205.376 372.627 205.87 372.324 206.143 372.102V362.342C206.143 361.488 205.771 360.826 205.029 360.356C204.299 359.874 203.161 359.633 201.615 359.633C200.242 359.633 199.147 359.911 198.331 360.468C197.527 361.024 197.125 361.909 197.125 363.121V370.506C197.125 371.681 197.558 372.491 198.424 372.937C199.29 373.369 200.36 373.586 201.634 373.586ZM226.367 377V350.17H229.8L238.929 365.014L247.965 350.17H251.268V377H247.742V356.2L240.228 368.502H237.463L229.93 356.237V377H226.367ZM258.059 370.061V363.214C258.059 361.358 258.696 359.855 259.97 358.705C261.244 357.542 263.291 356.961 266.111 356.961C268.808 356.961 270.793 357.493 272.067 358.557C273.341 359.608 273.979 361.068 273.979 362.936V367.611H261.547V370.376C261.547 371.972 261.862 373.097 262.493 373.753C263.136 374.409 264.386 374.736 266.241 374.736C267.342 374.736 268.208 374.699 268.839 374.625C269.482 374.538 269.952 374.291 270.249 373.883C270.558 373.462 270.762 372.757 270.861 371.768H273.941C273.781 373.314 273.44 374.495 272.921 375.312C272.414 376.116 271.628 376.666 270.564 376.963C269.501 377.26 268.06 377.408 266.241 377.408C263.31 377.408 261.213 376.796 259.951 375.571C258.689 374.347 258.059 372.51 258.059 370.061ZM270.602 365.255V362.564C270.602 361.377 270.187 360.591 269.358 360.208C268.542 359.825 267.46 359.633 266.111 359.633C264.726 359.633 263.619 359.874 262.79 360.356C261.961 360.839 261.547 361.686 261.547 362.898V365.255H270.602ZM281.196 371.378V359.967H277.912V357.332H281.326L281.753 351.246H284.685V357.332H289.62V359.967H284.685V371.155C284.685 372.454 285.068 373.289 285.835 373.66C286.602 374.031 287.814 374.217 289.472 374.217H289.861L289.49 377.148H288.971C286.286 377.148 284.32 376.728 283.07 375.887C281.821 375.046 281.196 373.543 281.196 371.378ZM300.493 377.408C299.046 377.408 297.865 377.161 296.949 376.666C296.046 376.159 295.378 375.497 294.945 374.681C294.525 373.852 294.314 372.967 294.314 372.027C294.314 371.038 294.506 370.209 294.89 369.541C295.285 368.861 296.021 368.248 297.098 367.704C298.186 367.147 299.776 366.566 301.866 365.96C302.955 365.638 303.827 365.354 304.482 365.106C305.138 364.859 305.614 364.544 305.911 364.16C306.208 363.777 306.356 363.226 306.356 362.509C306.356 361.977 306.27 361.494 306.097 361.062C305.936 360.629 305.596 360.282 305.076 360.022C304.569 359.763 303.79 359.633 302.738 359.633C301.427 359.633 300.468 359.769 299.862 360.041C299.256 360.313 298.867 360.672 298.693 361.117C298.533 361.55 298.452 362.033 298.452 362.564V363.437H295.094V362.546C295.094 360.604 295.743 359.188 297.042 358.297C298.341 357.406 300.277 356.961 302.85 356.961C305.447 356.961 307.259 357.567 308.286 358.779C309.325 359.992 309.845 361.612 309.845 363.641V372.027C309.845 373.066 309.975 373.734 310.234 374.031C310.507 374.328 311.063 374.477 311.904 374.477L311.496 377.148H310.791C309.48 377.148 308.534 376.895 307.952 376.388C307.371 375.868 306.932 375.145 306.635 374.217C306.35 374.662 305.954 375.132 305.447 375.627C304.952 376.122 304.303 376.542 303.499 376.889C302.707 377.235 301.705 377.408 300.493 377.408ZM300.92 374.811C301.625 374.811 302.361 374.662 303.128 374.365C303.895 374.056 304.575 373.654 305.169 373.159C305.775 372.652 306.171 372.095 306.356 371.489V366.312C306.084 366.585 305.608 366.943 304.928 367.389C304.26 367.822 303.301 368.217 302.052 368.576C300.53 369.009 299.411 369.454 298.693 369.912C297.988 370.37 297.636 371.038 297.636 371.916C297.636 372.906 297.889 373.635 298.396 374.105C298.916 374.576 299.757 374.811 300.92 374.811ZM314.725 357.332H318.231L324.15 373.289L329.42 357.332H332.834L325.876 377H322.351L314.725 357.332ZM336.768 370.061V363.214C336.768 361.358 337.405 359.855 338.679 358.705C339.953 357.542 342 356.961 344.82 356.961C347.517 356.961 349.502 357.493 350.776 358.557C352.05 359.608 352.688 361.068 352.688 362.936V367.611H340.256V370.376C340.256 371.972 340.571 373.097 341.202 373.753C341.845 374.409 343.095 374.736 344.95 374.736C346.051 374.736 346.917 374.699 347.548 374.625C348.191 374.538 348.661 374.291 348.958 373.883C349.267 373.462 349.471 372.757 349.57 371.768H352.65C352.49 373.314 352.149 374.495 351.63 375.312C351.123 376.116 350.337 376.666 349.273 376.963C348.21 377.26 346.769 377.408 344.95 377.408C342.019 377.408 339.922 376.796 338.66 375.571C337.398 374.347 336.768 372.51 336.768 370.061ZM349.311 365.255V362.564C349.311 361.377 348.896 360.591 348.067 360.208C347.251 359.825 346.169 359.633 344.82 359.633C343.435 359.633 342.328 359.874 341.499 360.356C340.67 360.839 340.256 361.686 340.256 362.898V365.255H349.311ZM358.588 357.332H362.076V360.115C362.361 359.373 362.874 358.779 363.616 358.334C364.371 357.876 365.224 357.549 366.177 357.351C367.129 357.153 368.038 357.054 368.904 357.054L368.793 360.041C367.68 360.041 366.61 360.196 365.583 360.505C364.556 360.802 363.715 361.191 363.06 361.674C362.404 362.156 362.076 362.676 362.076 363.232V377H358.588V357.332ZM372.578 375.812L373.432 373.252C373.865 373.487 374.613 373.796 375.677 374.18C376.741 374.551 377.94 374.736 379.276 374.736C380.823 374.736 381.868 374.452 382.412 373.883C382.956 373.314 383.229 372.615 383.229 371.786C383.229 371.019 383.123 370.413 382.913 369.968C382.715 369.522 382.152 369.127 381.225 368.78L376.549 367.073C375.126 366.554 374.131 365.941 373.562 365.236C372.993 364.531 372.708 363.566 372.708 362.342C372.708 360.684 373.166 359.373 374.081 358.408C374.996 357.443 376.666 356.961 379.091 356.961C380.476 356.961 381.744 357.072 382.895 357.295C384.057 357.505 384.997 357.753 385.715 358.037L384.917 360.709C384.546 360.548 384.057 360.387 383.451 360.227C382.845 360.066 382.214 359.93 381.559 359.818C380.903 359.695 380.297 359.633 379.74 359.633C378.145 359.633 377.112 359.837 376.642 360.245C376.184 360.641 375.955 361.284 375.955 362.175C375.955 362.781 376.066 363.232 376.289 363.529C376.524 363.814 376.976 364.086 377.644 364.346L382.264 366.146C383.365 366.566 384.193 367.018 384.75 367.5C385.319 367.97 385.702 368.539 385.9 369.207C386.098 369.875 386.197 370.722 386.197 371.749C386.197 372.776 385.981 373.722 385.548 374.588C385.127 375.441 384.441 376.128 383.488 376.647C382.548 377.155 381.299 377.408 379.74 377.408C377.91 377.408 376.369 377.204 375.12 376.796C373.871 376.388 373.023 376.06 372.578 375.812ZM391.096 370.061V363.214C391.096 361.358 391.733 359.855 393.007 358.705C394.281 357.542 396.328 356.961 399.148 356.961C401.845 356.961 403.83 357.493 405.104 358.557C406.379 359.608 407.016 361.068 407.016 362.936V367.611H394.584V370.376C394.584 371.972 394.899 373.097 395.53 373.753C396.174 374.409 397.423 374.736 399.278 374.736C400.379 374.736 401.245 374.699 401.876 374.625C402.519 374.538 402.989 374.291 403.286 373.883C403.595 373.462 403.799 372.757 403.898 371.768H406.979C406.818 373.314 406.478 374.495 405.958 375.312C405.451 376.116 404.665 376.666 403.602 376.963C402.538 377.26 401.097 377.408 399.278 377.408C396.347 377.408 394.25 376.796 392.988 375.571C391.727 374.347 391.096 372.51 391.096 370.061ZM403.639 365.255V362.564C403.639 361.377 403.224 360.591 402.396 360.208C401.579 359.825 400.497 359.633 399.148 359.633C397.763 359.633 396.656 359.874 395.827 360.356C394.998 360.839 394.584 361.686 394.584 362.898V365.255H403.639Z" fill="#0D1272"/>
</svg>
