<svg width="21" height="21" viewBox="0 0 21 21" fill="none" xmlns="http://www.w3.org/2000/svg">
<path d="M11.375 7V0.875C11.375 0.622222 11.4576 0.413195 11.6229 0.247917C11.7882 0.082639 11.9972 0 12.25 0H20.125C20.3778 0 20.5868 0.082639 20.7521 0.247917C20.9174 0.413195 21 0.622222 21 0.875V7C21 7.25278 20.9174 7.46181 20.7521 7.62708C20.5868 7.79236 20.3778 7.875 20.125 7.875H12.25C11.9972 7.875 11.7882 7.79236 11.6229 7.62708C11.4576 7.46181 11.375 7.25278 11.375 7ZM0 10.5V0.875C0 0.622222 0.082639 0.413195 0.247917 0.247917C0.413195 0.082639 0.622222 0 0.875 0H8.75C9.00278 0 9.21181 0.082639 9.37708 0.247917C9.54236 0.413195 9.625 0.622222 9.625 0.875V10.5C9.625 10.7528 9.54236 10.9618 9.37708 11.1271C9.21181 11.2924 9.00278 11.375 8.75 11.375H0.875C0.622222 11.375 0.413195 11.2924 0.247917 11.1271C0.082639 10.9618 0 10.7528 0 10.5ZM11.375 20.125V10.5C11.375 10.2472 11.4576 10.0382 11.6229 9.87292C11.7882 9.70764 11.9972 9.625 12.25 9.625H20.125C20.3778 9.625 20.5868 9.70764 20.7521 9.87292C20.9174 10.0382 21 10.2472 21 10.5V20.125C21 20.3778 20.9174 20.5868 20.7521 20.7521C20.5868 20.9174 20.3778 21 20.125 21H12.25C11.9972 21 11.7882 20.9174 11.6229 20.7521C11.4576 20.5868 11.375 20.3778 11.375 20.125ZM0 20.125V14C0 13.7472 0.082639 13.5382 0.247917 13.3729C0.413195 13.2076 0.622222 13.125 0.875 13.125H8.75C9.00278 13.125 9.21181 13.2076 9.37708 13.3729C9.54236 13.5382 9.625 13.7472 9.625 14V20.125C9.625 20.3778 9.54236 20.5868 9.37708 20.7521C9.21181 20.9174 9.00278 21 8.75 21H0.875C0.622222 21 0.413195 20.9174 0.247917 20.7521C0.082639 20.5868 0 20.3778 0 20.125ZM1.75 9.625H7.875V1.75H1.75V9.625ZM13.125 19.25H19.25V11.375H13.125V19.25ZM13.125 6.125H19.25V1.75H13.125V6.125ZM1.75 19.25H7.875V14.875H1.75V19.25Z" fill="#565B6B"/>
</svg>
