<svg width="21" height="22" viewBox="0 0 21 22" fill="none" xmlns="http://www.w3.org/2000/svg">
<path d="M3.76812 22C3.14976 22 2.61353 21.7729 2.15942 21.3188C1.70531 20.8647 1.47826 20.3285 1.47826 19.7101V3.47826H1.15942C0.830918 3.47826 0.555555 3.36715 0.333333 3.14493C0.111111 2.92271 0 2.64734 0 2.31884C0 1.99034 0.111111 1.71498 0.333333 1.49275C0.555555 1.27053 0.830918 1.15942 1.15942 1.15942H6.17391C6.17391 0.830918 6.28502 0.555555 6.50725 0.333333C6.72947 0.111111 7.00483 0 7.33333 0H13.1884C13.5169 0 13.7971 0.115942 14.029 0.347826C14.2609 0.57971 14.3768 0.850241 14.3768 1.15942H19.3623C19.6908 1.15942 19.9662 1.27053 20.1884 1.49275C20.4106 1.71498 20.5217 1.99034 20.5217 2.31884C20.5217 2.64734 20.4106 2.92271 20.1884 3.14493C19.9662 3.36715 19.6908 3.47826 19.3623 3.47826H19.0435V19.7101C19.0435 20.3285 18.8164 20.8647 18.3623 21.3188C17.9082 21.7729 17.372 22 16.7536 22H3.76812ZM6.78261 16.3478C6.78261 16.6184 6.87923 16.8502 7.07246 17.0435C7.2657 17.2367 7.49758 17.3333 7.76812 17.3333C8.05797 17.3333 8.29952 17.2367 8.49275 17.0435C8.68599 16.8502 8.78261 16.6184 8.78261 16.3478V6.81159C8.78261 6.52174 8.68116 6.27536 8.47826 6.07246C8.27536 5.86957 8.03865 5.76812 7.76812 5.76812C7.47826 5.76812 7.24155 5.86957 7.05797 6.07246C6.8744 6.27536 6.78261 6.52174 6.78261 6.81159V16.3478ZM11.7391 16.3478C11.7391 16.6184 11.8406 16.8502 12.0435 17.0435C12.2464 17.2367 12.4831 17.3333 12.7536 17.3333C13.0435 17.3333 13.285 17.2367 13.4783 17.0435C13.6715 16.8502 13.7681 16.6184 13.7681 16.3478V6.81159C13.7681 6.52174 13.6667 6.27536 13.4638 6.07246C13.2609 5.86957 13.0242 5.76812 12.7536 5.76812C12.4638 5.76812 12.2222 5.86957 12.029 6.07246C11.8357 6.27536 11.7391 6.52174 11.7391 6.81159V16.3478Z" fill="#98A3EB"/>
</svg>
