<svg width="104" height="75" viewBox="0 0 104 75" fill="none" xmlns="http://www.w3.org/2000/svg">
<path d="M24.6315 74.95C17.9067 74.95 12.1202 72.526 7.27214 67.6779C2.42405 62.8298 0 57.0433 0 50.3185C0 44.2193 1.93533 38.8434 5.80599 34.1908C9.67664 29.5382 14.6616 26.7427 20.7608 25.8044C22.3247 18.2195 25.9999 12.0225 31.7863 7.2135C37.5727 2.4045 44.2584 0 51.8433 0C60.6794 0 68.0884 3.18645 74.0703 9.55935C80.0522 15.9323 83.0432 23.5758 83.0432 32.4901V35.3051C88.6732 35.1487 93.4431 36.9667 97.3529 40.7592C101.263 44.5517 103.218 49.3411 103.218 55.1275C103.218 60.523 101.263 65.1756 97.3529 69.0854C93.4431 72.9951 88.7905 74.95 83.3951 74.95H55.1275C53.2509 74.95 51.6088 74.2462 50.2013 72.8387C48.7937 71.4312 48.09 69.7891 48.09 67.9124V37.6509L40.8178 44.9231C40.1141 45.6268 39.293 45.9592 38.3547 45.9201C37.4164 45.881 36.5953 45.5095 35.8915 44.8058C35.1878 44.102 34.8359 43.2614 34.8359 42.284C34.8359 41.3066 35.1878 40.466 35.8915 39.7622L49.1456 26.5081C49.5366 26.1172 49.9276 25.8435 50.3185 25.6871C50.7095 25.5307 51.1396 25.4525 51.6088 25.4525C52.0779 25.4525 52.508 25.5307 52.899 25.6871C53.29 25.8435 53.6809 26.1172 54.0719 26.5081L67.4433 39.8795C68.147 40.5833 68.4989 41.4043 68.4989 42.3426C68.4989 43.281 68.147 44.102 67.4433 44.8058C66.7395 45.5095 65.8989 45.8614 64.9215 45.8614C63.944 45.8614 63.1034 45.5095 62.3997 44.8058L55.1275 37.6509V67.9124H83.3951C86.9138 67.9124 89.9244 66.6613 92.4266 64.1591C94.9288 61.6568 96.18 58.6463 96.18 55.1275C96.18 51.6088 94.9288 48.5983 92.4266 46.096C89.9244 43.5938 86.9138 42.3426 83.3951 42.3426H76.0056V32.4901C76.0056 25.5307 73.6402 19.5488 68.9094 14.5443C64.1786 9.5398 58.3335 7.03756 51.3742 7.03756C44.4148 7.03756 38.5502 9.5398 33.7803 14.5443C29.0104 19.5488 26.6254 25.5307 26.6254 32.4901H24.3969C19.5488 32.4901 15.4435 34.1908 12.0811 37.5923C8.71875 40.9938 7.03756 45.1968 7.03756 50.2013C7.03756 55.0494 8.75785 59.2132 12.1984 62.6929C15.639 66.1726 19.7834 67.9124 24.6315 67.9124H37.5336C38.5502 67.9124 39.3908 68.2448 40.0554 68.9094C40.7201 69.5741 41.0524 70.4147 41.0524 71.4312C41.0524 72.4478 40.7201 73.2884 40.0554 73.953C39.3908 74.6177 38.5502 74.95 37.5336 74.95H24.6315Z" fill="#565B6B"/>
</svg>
