<svg width="23" height="23" viewBox="0 0 23 23" fill="none" xmlns="http://www.w3.org/2000/svg">
<path d="M16.3042 11.725C16.1875 11.725 16.0806 11.7056 15.9833 11.6667C15.8861 11.6278 15.7889 11.5597 15.6917 11.4625L10.7042 6.475C10.6069 6.37778 10.5389 6.28056 10.5 6.18333C10.4611 6.08611 10.4417 5.97917 10.4417 5.8625C10.4417 5.74583 10.4611 5.63889 10.5 5.54167C10.5389 5.44444 10.6069 5.34722 10.7042 5.25L15.6917 0.2625C15.7889 0.165278 15.8861 0.0972222 15.9833 0.0583333C16.0806 0.0194444 16.1875 0 16.3042 0C16.4208 0 16.5278 0.0194444 16.625 0.0583333C16.7222 0.0972222 16.8194 0.165278 16.9167 0.2625L21.9042 5.25C22.0014 5.34722 22.0694 5.44444 22.1083 5.54167C22.1472 5.63889 22.1667 5.74583 22.1667 5.8625C22.1667 5.97917 22.1472 6.08611 22.1083 6.18333C22.0694 6.28056 22.0014 6.37778 21.9042 6.475L16.9167 11.4625C16.8194 11.5597 16.7222 11.6278 16.625 11.6667C16.5278 11.7056 16.4208 11.725 16.3042 11.725ZM0.875 9.975C0.622222 9.975 0.413195 9.89236 0.247917 9.72708C0.082639 9.5618 0 9.35278 0 9.1V2.07083C0 1.81806 0.082639 1.60903 0.247917 1.44375C0.413195 1.27847 0.622222 1.19583 0.875 1.19583H7.90417C8.15694 1.19583 8.36597 1.27847 8.53125 1.44375C8.69653 1.60903 8.77917 1.81806 8.77917 2.07083V9.1C8.77917 9.35278 8.69653 9.5618 8.53125 9.72708C8.36597 9.89236 8.15694 9.975 7.90417 9.975H0.875ZM13.0667 22.1667C12.8139 22.1667 12.6049 22.084 12.4396 21.9187C12.2743 21.7535 12.1917 21.5444 12.1917 21.2917V14.2625C12.1917 14.0097 12.2743 13.8007 12.4396 13.6354C12.6049 13.4701 12.8139 13.3875 13.0667 13.3875H20.0958C20.3486 13.3875 20.5576 13.4701 20.7229 13.6354C20.8882 13.8007 20.9708 14.0097 20.9708 14.2625V21.2917C20.9708 21.5444 20.8882 21.7535 20.7229 21.9187C20.5576 22.084 20.3486 22.1667 20.0958 22.1667H13.0667ZM0.875 22.1667C0.622222 22.1667 0.413195 22.084 0.247917 21.9187C0.082639 21.7535 0 21.5444 0 21.2917V14.2625C0 14.0097 0.082639 13.8007 0.247917 13.6354C0.413195 13.4701 0.622222 13.3875 0.875 13.3875H7.90417C8.15694 13.3875 8.36597 13.4701 8.53125 13.6354C8.69653 13.8007 8.77917 14.0097 8.77917 14.2625V21.2917C8.77917 21.5444 8.69653 21.7535 8.53125 21.9187C8.36597 22.084 8.15694 22.1667 7.90417 22.1667H0.875ZM1.75 8.225H7.02917V2.94583H1.75V8.225ZM16.3917 9.7125L20.1542 5.95L16.3917 2.1875L12.6292 5.95L16.3917 9.7125ZM13.9417 20.4167H19.2208V15.1375H13.9417V20.4167ZM1.75 20.4167H7.02917V15.1375H1.75V20.4167Z" fill="#565B6B"/>
</svg>
