<svg width="19" height="19" viewBox="0 0 19 19" fill="none" xmlns="http://www.w3.org/2000/svg">
<path d="M9.33333 8.75C8.05 8.75 7 8.34167 6.18333 7.525C5.36667 6.70833 4.95833 5.65833 4.95833 4.375C4.95833 3.09167 5.36667 2.04167 6.18333 1.225C7 0.408334 8.05 0 9.33333 0C10.6167 0 11.6667 0.408334 12.4833 1.225C13.3 2.04167 13.7083 3.09167 13.7083 4.375C13.7083 5.65833 13.3 6.70833 12.4833 7.525C11.6667 8.34167 10.6167 8.75 9.33333 8.75ZM16.9167 18.1125H1.75C1.26389 18.1125 0.850694 17.9424 0.510417 17.6021C0.170139 17.2618 0 16.8486 0 16.3625V15.3708C0 14.6319 0.184722 14 0.554167 13.475C0.923611 12.95 1.4 12.5514 1.98333 12.2792C3.28611 11.6958 4.53542 11.2583 5.73125 10.9667C6.92708 10.675 8.12778 10.5292 9.33333 10.5292C10.5389 10.5292 11.7347 10.6799 12.9208 10.9812C14.1069 11.2826 15.3514 11.7153 16.6542 12.2792C17.2569 12.5514 17.7431 12.95 18.1125 13.475C18.4819 14 18.6667 14.6319 18.6667 15.3708V16.3625C18.6667 16.8486 18.4965 17.2618 18.1562 17.6021C17.816 17.9424 17.4028 18.1125 16.9167 18.1125ZM1.75 16.3625H16.9167V15.3708C16.9167 15.0597 16.8243 14.7632 16.6396 14.4812C16.4549 14.1993 16.2264 13.9903 15.9542 13.8542C14.7097 13.2514 13.5722 12.8382 12.5417 12.6146C11.5111 12.391 10.4417 12.2792 9.33333 12.2792C8.225 12.2792 7.14583 12.391 6.09583 12.6146C5.04583 12.8382 3.90833 13.2514 2.68333 13.8542C2.41111 13.9903 2.1875 14.1993 2.0125 14.4812C1.8375 14.7632 1.75 15.0597 1.75 15.3708V16.3625ZM9.33333 7C10.0917 7 10.7188 6.75208 11.2146 6.25625C11.7104 5.76042 11.9583 5.13333 11.9583 4.375C11.9583 3.61667 11.7104 2.98958 11.2146 2.49375C10.7188 1.99792 10.0917 1.75 9.33333 1.75C8.575 1.75 7.94792 1.99792 7.45208 2.49375C6.95625 2.98958 6.70833 3.61667 6.70833 4.375C6.70833 5.13333 6.95625 5.76042 7.45208 6.25625C7.94792 6.75208 8.575 7 9.33333 7Z" fill="#5256B8"/>
</svg>
